# This file uses centimeters as units for non-parametric coordinates.

mtllib Cuarto.mtl
g default
v -12.000000 15.000000 12.000000
v 12.000000 15.000000 12.000000
v -13.000000 16.000000 13.000000
v 12.000000 16.000000 13.000000
v -13.000000 16.000000 -13.000000
v 12.000000 16.000000 -13.000000
v -12.000000 15.000000 -12.000000
v 12.000000 15.000000 -12.000000
v -12.000000 0.000000 -12.000000
v 12.000000 0.000000 -12.000000
v -13.000000 15.000000 -13.000000
v 12.000000 15.000000 -13.000000
v -13.000000 0.000000 -13.000000
v 12.000000 0.000000 -13.000000
v -13.000000 0.000000 13.000000
v 12.000000 0.000000 13.000000
v -13.000000 15.000000 13.000000
v 12.000000 15.000000 13.000000
v -12.000000 0.000000 12.000000
v 12.000000 0.000000 12.000000
vt 0.535273 0.331573
vt 0.535273 0.015175
vt 0.548456 0.001992
vt 0.548456 0.344757
vt 0.535273 0.001992
vt 0.535273 0.344757
vt 0.337524 0.015175
vt 0.337524 0.001992
vt 0.337524 0.344757
vt 0.337524 0.331573
vt 0.410311 0.998008
vt 0.410311 0.681610
vt 0.608060 0.681610
vt 0.608060 0.998008
vt 0.554110 0.344757
vt 0.554110 0.001992
vt 0.751859 0.001992
vt 0.751859 0.344757
vt 0.765043 0.001992
vt 0.765043 0.344757
vt 0.001815 0.001992
vt 0.331396 0.001992
vt 0.331396 0.344757
vt 0.001815 0.344757
vt 0.159645 0.348392
vt 0.476044 0.348392
vt 0.476044 0.664791
vt 0.159645 0.664791
vt 0.001815 0.984825
vt 0.001815 0.668427
vt 0.199563 0.668427
vt 0.199563 0.984825
vt 0.711336 0.677974
vt 0.711336 0.348392
vt 0.909085 0.348392
vt 0.909085 0.677974
vt 0.698153 0.677974
vt 0.698153 0.348392
vt 0.481632 0.677974
vt 0.481632 0.348392
vt 0.679381 0.348392
vt 0.679381 0.677974
vt 0.692564 0.348392
vt 0.692564 0.677974
vt 0.206152 0.984825
vt 0.206152 0.668427
vt 0.403900 0.668427
vt 0.403900 0.984825
vn 0.000000 1.000000 0.000000
vn 0.000000 1.000000 0.000000
vn 0.000000 1.000000 0.000000
vn 0.000000 1.000000 0.000000
vn 0.000000 -1.000000 0.000000
vn 0.000000 -1.000000 0.000000
vn 0.000000 -1.000000 0.000000
vn 0.000000 -1.000000 0.000000
vn 1.000000 0.000000 0.000000
vn 1.000000 0.000000 0.000000
vn 1.000000 0.000000 0.000000
vn 1.000000 0.000000 0.000000
vn 0.000000 0.000000 1.000000
vn 0.000000 0.000000 1.000000
vn 0.000000 0.000000 1.000000
vn 0.000000 0.000000 1.000000
vn 0.000000 0.000000 -1.000000
vn 0.000000 0.000000 -1.000000
vn 0.000000 0.000000 -1.000000
vn 0.000000 0.000000 -1.000000
vn 1.000000 0.000000 0.000000
vn 1.000000 0.000000 0.000000
vn 1.000000 0.000000 0.000000
vn 1.000000 0.000000 0.000000
vn 0.000000 0.000000 1.000000
vn 0.000000 0.000000 1.000000
vn 0.000000 0.000000 1.000000
vn 0.000000 0.000000 1.000000
vn 0.000000 0.000000 -1.000000
vn 0.000000 0.000000 -1.000000
vn 0.000000 0.000000 -1.000000
vn 0.000000 0.000000 -1.000000
vn 1.000000 0.000000 0.000000
vn 1.000000 0.000000 0.000000
vn 1.000000 0.000000 0.000000
vn 1.000000 0.000000 0.000000
vn 1.000000 0.000000 0.000000
vn 1.000000 0.000000 0.000000
vn 1.000000 0.000000 0.000000
vn 1.000000 0.000000 0.000000
vn -1.000000 0.000000 0.000000
vn -1.000000 0.000000 0.000000
vn -1.000000 0.000000 0.000000
vn -1.000000 0.000000 0.000000
vn 0.000000 0.000000 1.000000
vn 0.000000 0.000000 1.000000
vn 0.000000 0.000000 1.000000
vn 0.000000 0.000000 1.000000
vn -1.000000 0.000000 0.000000
vn -1.000000 0.000000 0.000000
vn -1.000000 0.000000 0.000000
vn -1.000000 0.000000 0.000000
vn 0.000000 0.000000 -1.000000
vn 0.000000 0.000000 -1.000000
vn 0.000000 0.000000 -1.000000
vn 0.000000 0.000000 -1.000000
vn 1.000000 0.000000 0.000000
vn 1.000000 0.000000 0.000000
vn 1.000000 0.000000 0.000000
vn 1.000000 0.000000 0.000000
vn 1.000000 0.000000 0.000000
vn 1.000000 0.000000 0.000000
s off
g pCube9
usemtl lambert3SG
f 3/21/1 4/22/2 6/23/3 5/24/4
f 7/25/5 8/26/6 2/27/7 1/28/8
f 2/1/9 8/2/10 6/3/11 4/4/12
f 9/29/13 10/30/14 8/31/15 7/32/16
f 11/33/17 12/34/18 14/35/19 13/36/20
f 10/7/21 14/8/22 12/5/23 8/2/24
f 15/39/25 16/40/26 18/41/27 17/42/28
f 1/45/29 2/46/30 20/47/31 19/48/32
f 16/9/33 20/10/34 2/1/35 18/6/36
f 19/11/37 9/12/38 7/13/39 1/14/40
f 13/15/41 15/16/42 17/17/43 11/18/44
f 4/43/45 3/44/46 17/42/47 18/41/48
f 3/19/49 5/20/50 11/18/51 17/17/52
f 5/37/53 6/38/54 12/34/55 11/33/56
f 8/2/57 12/5/58 6/3/59
f 4/4/60 18/6/61 2/1/62
