# This file uses centimeters as units for non-parametric coordinates.

mtllib Muro03.mtl
g default
v -12.000000 0.000000 -12.000000
v 12.000000 0.000000 -12.000000
v -12.000000 15.000000 -12.000000
v 12.000000 15.000000 -12.000000
v -12.000000 15.000000 -13.000000
v 12.000000 15.000000 -13.000000
v -12.000000 0.000000 -13.000000
v 12.000000 0.000000 -13.000000
vt 0.933482 0.001348
vt 0.961566 0.001348
vt 0.961566 0.422604
vt 0.933482 0.422604
vt 0.969924 0.001348
vt 0.998008 0.001348
vt 0.998008 0.422604
vt 0.969924 0.422604
vt 0.431397 0.675358
vt 0.431397 0.001348
vt 0.459480 0.001348
vt 0.459480 0.675358
vt 0.897041 0.675358
vt 0.897041 0.001348
vt 0.925124 0.001348
vt 0.925124 0.675358
vt 0.001992 0.675358
vt 0.001992 0.001348
vt 0.423248 0.001348
vt 0.423248 0.675358
vt 0.467838 0.675358
vt 0.467838 0.001348
vt 0.889094 0.001348
vt 0.889094 0.675358
vn 0.000000 0.000000 1.000000
vn 0.000000 0.000000 1.000000
vn 0.000000 0.000000 1.000000
vn 0.000000 0.000000 1.000000
vn 0.000000 1.000000 0.000000
vn 0.000000 1.000000 0.000000
vn 0.000000 1.000000 0.000000
vn 0.000000 1.000000 0.000000
vn 0.000000 0.000000 -1.000000
vn 0.000000 0.000000 -1.000000
vn 0.000000 0.000000 -1.000000
vn 0.000000 0.000000 -1.000000
vn 0.000000 -1.000000 0.000000
vn 0.000000 -1.000000 0.000000
vn 0.000000 -1.000000 0.000000
vn 0.000000 -1.000000 0.000000
vn 1.000000 0.000000 0.000000
vn 1.000000 0.000000 0.000000
vn 1.000000 0.000000 0.000000
vn 1.000000 0.000000 0.000000
vn -1.000000 0.000000 0.000000
vn -1.000000 0.000000 0.000000
vn -1.000000 0.000000 0.000000
vn -1.000000 0.000000 0.000000
s off
g pCube1
usemtl lambert3SG
f 1/17/1 2/18/2 4/19/3 3/20/4
f 3/9/5 4/10/6 6/11/7 5/12/8
f 5/21/9 6/22/10 8/23/11 7/24/12
f 7/13/13 8/14/14 2/15/15 1/16/16
f 2/1/17 8/2/18 6/3/19 4/4/20
f 7/5/21 1/6/22 3/7/23 5/8/24
